<?xml version="1.0" standalone="no"?>
<!DOCTYPE svg PUBLIC "-//W3C//DTD SVG 20010904//EN"
 "http://www.w3.org/TR/2001/REC-SVG-20010904/DTD/svg10.dtd">
<svg version="1.0" xmlns="http://www.w3.org/2000/svg"
 width="1024.000000pt" height="1024.000000pt" viewBox="0 0 1024.000000 1024.000000"
 preserveAspectRatio="xMidYMid meet">
<metadata>
Created by potrace 1.16, written by Peter Selinger 2001-2019
</metadata>
<g transform="translate(0.000000,1024.000000) scale(0.100000,-0.100000)"
fill="#000000" stroke="none">
<path d="M765 8591 c-62 -23 -181 -82 -259 -129 -62 -37 -94 -81 -269 -366
-78 -127 -86 -149 -63 -175 19 -21 170 -123 269 -182 l57 -34 0 -55 c0 -54
-18 -316 -41 -618 -10 -133 -10 -156 3 -168 22 -23 230 -37 553 -37 278 -1
571 16 589 34 6 5 0 153 -17 396 -15 214 -27 402 -27 420 0 28 7 36 63 69 190
114 280 185 270 213 -7 17 -165 279 -236 390 -23 36 -51 73 -62 84 -11 10 -90
53 -175 95 -145 73 -157 77 -210 73 -97 -6 -324 -5 -360 2 -24 4 -51 1 -85
-12z m35 -98 c0 -13 -29 -31 -95 -62 -53 -24 -106 -54 -120 -67 -14 -13 -25
-18 -28 -11 -2 6 -12 -2 -22 -18 -52 -83 -180 -270 -197 -287 -11 -11 -22 -17
-25 -14 -6 5 40 83 150 255 l61 93 129 64 c71 35 133 64 138 64 5 0 9 -8 9
-17z m639 -67 c71 -36 96 -55 119 -88 31 -46 82 -135 82 -144 0 -14 -21 10
-35 40 -9 18 -30 48 -48 66 -18 19 -26 30 -18 25 9 -5 12 -4 8 3 -11 17 -45 2
-50 -22 -2 -11 -5 -2 -6 22 l-1 43 -67 30 c-38 17 -88 40 -111 52 -41 19 -45
20 -53 4 -6 -9 -10 -20 -10 -24 -1 -11 -30 -43 -39 -43 -4 0 3 21 16 47 13 25
24 52 24 60 0 16 60 -7 189 -71z m-823 -903 c-4 -131 -11 -309 -16 -397 -5
-87 -7 -162 -5 -166 6 -9 -25 -23 -34 -15 -3 3 6 158 19 343 13 185 25 367 28
405 2 37 6 67 9 67 3 0 2 -107 -1 -237z"/>
<path d="M9084 8591 c-28 -10 -105 -46 -171 -80 l-119 -61 -79 -127 c-43 -71
-107 -173 -141 -228 -85 -136 -90 -150 -73 -172 18 -21 218 -152 286 -186 28
-15 54 -30 56 -34 5 -8 -24 -484 -42 -703 -5 -67 -6 -121 0 -131 11 -22 46
-26 331 -40 187 -10 281 -10 445 0 229 14 329 24 339 34 4 4 -5 183 -20 399
-14 216 -26 404 -26 418 1 21 18 35 111 89 127 75 227 145 236 167 3 8 -32 77
-80 157 -46 78 -113 191 -147 250 -62 106 -64 109 -130 142 -37 18 -111 53
-166 76 -81 34 -109 41 -151 39 -122 -6 -331 -4 -368 2 -29 5 -54 2 -91 -11z
m113 -195 c13 -16 20 -32 17 -37 -3 -5 2 -9 10 -9 9 0 16 -5 16 -11 0 -5 5 -7
10 -4 6 3 10 2 10 -3 0 -10 7 -11 88 -13 43 -1 72 6 115 26 32 14 61 33 64 41
3 7 9 14 15 14 15 0 -26 -49 -47 -56 -11 -3 -27 -13 -36 -21 -24 -20 -131 -34
-175 -21 -34 9 -130 86 -120 96 3 2 -1 11 -9 19 -8 8 -15 23 -15 34 0 11 -4
17 -10 14 -5 -3 -10 1 -10 9 0 9 -2 16 -5 16 -3 0 -61 -23 -128 -51 l-122 -51
-32 -67 c-26 -55 -164 -293 -179 -310 -2 -2 -7 -2 -10 2 -4 3 35 75 86 159 52
84 102 169 112 189 16 30 34 43 101 74 107 49 158 67 174 61 7 -3 13 0 13 7 0
7 11 -8 23 -33 12 -25 32 -58 44 -74z m-239 -1016 c0 -129 -3 -280 -7 -335 -6
-95 -7 -100 -30 -103 l-23 -4 6 104 c4 57 13 208 21 336 8 128 15 243 16 255
0 21 1 21 9 2 5 -11 8 -126 8 -255z"/>
<path d="M5091 8504 c-19 -25 -21 -40 -21 -189 l0 -162 -92 -7 c-899 -66
-1796 -617 -2338 -1436 -45 -69 -89 -130 -96 -136 -15 -12 -10 -12 -394 -54
-146 -17 -275 -32 -287 -35 -40 -9 -55 -111 -22 -152 6 -7 27 -13 46 -13 45 0
649 67 730 81 l62 11 37 66 c53 96 174 272 262 381 376 463 929 842 1459 1000
198 58 472 110 586 111 l47 0 0 -164 0 -164 -100 -12 c-55 -7 -100 -14 -100
-17 0 -6 134 5 153 12 32 12 40 -12 44 -131 5 -156 10 -180 36 -199 26 -18 76
-19 98 -2 38 29 40 50 40 368 l-1 309 41 0 c131 0 477 -75 679 -147 266 -95
566 -262 793 -440 l108 -85 75 10 c121 16 133 42 52 119 -410 385 -1086 680
-1649 719 l-99 7 0 167 c0 161 -1 167 -23 188 -35 33 -99 30 -126 -4z"/>
<path d="M8029 8242 c-10 -4 -82 -62 -160 -129 -79 -67 -251 -210 -382 -318
-148 -123 -239 -206 -243 -220 -13 -54 42 -106 98 -92 14 4 65 42 114 85 49
43 213 180 364 306 151 125 285 241 298 258 24 34 22 60 -7 90 -19 20 -60 30
-82 20z"/>
<path d="M2363 7960 c-30 -12 -39 -54 -19 -85 l16 -25 289 0 c266 0 289 1 304
18 24 26 21 68 -5 86 -19 14 -64 16 -293 15 -148 0 -280 -4 -292 -9z"/>
<path d="M2354 7739 c-13 -14 -15 -25 -9 -35 8 -13 52 -16 273 -21 235 -4 262
-3 262 11 0 23 17 20 23 -4 7 -28 35 -25 43 4 3 14 13 27 22 31 14 5 13 9 -8
21 -20 11 -83 13 -306 13 -269 0 -283 -1 -300 -20z"/>
<path d="M7904 7678 c-38 -29 -74 -57 -80 -63 -6 -5 -30 -21 -52 -35 -30 -18
-40 -30 -37 -45 2 -11 4 -23 4 -27 2 -20 37 -2 132 68 57 42 104 83 104 92 0
8 6 17 13 20 6 2 10 8 6 13 -3 5 0 9 5 9 6 0 11 -5 11 -12 0 -6 2 -9 5 -6 11
10 -8 38 -25 38 -9 0 -48 -23 -86 -52z"/>
<path d="M4315 7666 c-393 -170 -724 -393 -1007 -677 -113 -113 -155 -169
-143 -189 3 -5 11 -7 18 -5 7 2 37 9 69 15 53 10 62 17 145 102 232 238 542
445 955 637 123 58 149 82 128 121 -10 19 -40 40 -57 40 -4 0 -53 -20 -108
-44z"/>
<path d="M5005 7613 c-69 -14 -69 -14 -54 -24 12 -7 12 -9 -1 -9 -8 0 -21 4
-29 9 -17 11 -43 3 -35 -10 3 -5 0 -9 -5 -9 -6 0 -11 5 -11 10 0 6 -13 10 -29
10 -17 0 -32 4 -35 9 -6 9 -34 6 -66 -7 -21 -7 -19 -7 -75 -15 -74 -12 -158
-39 -144 -47 8 -6 5 -12 -11 -20 -12 -6 -24 -9 -28 -6 -3 3 0 6 6 6 7 0 12 5
12 11 0 11 -50 4 -80 -11 -8 -5 -41 -16 -73 -25 -31 -9 -54 -21 -51 -27 3 -5
0 -8 -8 -6 -8 2 -40 -8 -71 -21 -41 -18 -56 -29 -52 -39 4 -11 2 -12 -8 -4
-12 10 -102 -33 -202 -98 -16 -11 -36 -23 -42 -26 -7 -3 -10 -11 -6 -17 4 -6
1 -7 -6 -3 -21 13 -296 -180 -334 -234 -7 -11 -16 -18 -19 -15 -7 8 -99 -85
-93 -94 2 -5 -2 -12 -11 -15 -9 -3 -12 -2 -8 5 3 6 -4 5 -15 -3 -21 -12 -20
-13 18 -22 54 -12 85 -2 134 43 23 21 87 73 142 116 55 43 99 82 97 87 -1 5 2
7 7 4 5 -4 51 22 103 56 225 149 461 253 728 321 30 8 54 19 53 26 -2 6 7 11
20 11 18 0 19 -2 7 -11 -12 -8 -11 -9 5 -5 25 6 84 14 151 21 80 9 98 14 111
31 8 10 20 14 33 11 17 -4 21 -1 18 15 -3 23 -12 28 -43 21z"/>
<path d="M5423 7613 c33 -9 17 -22 -35 -30 l-53 -7 75 -12 75 -12 -80 3 -80 4
96 -14 c52 -7 148 -25 212 -40 65 -14 122 -23 129 -19 6 4 8 3 5 -3 -11 -17
100 -38 134 -26 23 9 31 8 41 -5 11 -13 11 -15 -2 -10 -8 3 -24 2 -34 -2 -15
-5 -9 -10 32 -23 28 -10 92 -37 143 -61 50 -25 98 -42 107 -39 11 5 13 3 7 -6
-5 -10 -2 -11 14 -6 12 4 21 2 21 -4 0 -6 -6 -11 -12 -11 -17 0 12 -20 30 -20
22 0 12 26 -15 41 -16 8 -35 20 -43 28 -13 13 -11 14 15 8 29 -7 29 -7 7 6
-24 14 -24 14 7 14 16 0 28 -4 25 -9 -3 -4 -1 -8 5 -8 25 0 18 19 -12 33 -165
78 -210 97 -234 103 -15 4 -32 10 -38 14 -33 23 -321 94 -446 110 -85 10 -130
12 -96 3z"/>
<path d="M2359 7510 c-25 -15 -32 -58 -14 -86 l15 -24 208 0 c230 0 252 5 252
59 0 57 -16 61 -241 61 -112 0 -211 -5 -220 -10z"/>
<path d="M4756 7304 c-162 -42 -301 -87 -372 -119 -30 -14 -57 -25 -60 -25 -3
0 -48 -21 -99 -46 -87 -42 -93 -47 -89 -72 3 -23 2 -24 -6 -9 -12 19 -19 21
-37 9 -10 -6 -10 -17 -1 -47 11 -38 12 -39 19 -15 7 23 7 23 8 -7 1 -18 -3
-33 -9 -33 -5 0 -10 -10 -10 -22 0 -20 -23 -34 -158 -97 -278 -130 -248 -122
-642 -171 -177 -22 -209 -32 -211 -64 -1 -17 -2 -18 -6 -3 -3 10 -14 17 -29
17 -14 0 -22 -4 -19 -10 4 -6 -5 -7 -24 -4 -26 6 -31 3 -36 -19 -4 -14 -5 -36
-2 -48 3 -18 6 -14 12 19 9 49 23 57 19 10 -2 -18 -1 -24 2 -13 11 39 19 33
16 -10 -2 -25 -8 -45 -13 -45 -5 0 -9 5 -9 10 0 6 -9 1 -20 -10 -28 -28 -26
-30 21 -30 22 0 38 4 35 9 -3 4 6 6 20 3 25 -5 26 -3 20 34 -3 22 -2 46 4 54
7 11 10 5 10 -25 0 -50 14 -65 59 -65 54 0 507 59 579 75 34 8 144 51 245 94
387 169 729 262 1124 305 178 20 435 21 524 2 75 -16 144 -48 152 -70 7 -17 8
-17 -238 -47 -93 -12 -172 -23 -174 -25 -2 -1 8 -27 23 -55 30 -61 36 -151 11
-185 -8 -12 -11 -24 -8 -28 3 -3 -3 -6 -15 -6 -12 0 -22 4 -22 10 0 5 -9 6
-22 1 -25 -9 -40 -42 -27 -62 7 -11 9 -10 9 4 0 11 5 15 11 11 6 -3 14 -2 18
4 8 14 37 19 36 7 0 -5 -4 -9 -9 -7 -5 2 -4 -4 3 -12 10 -12 10 -23 3 -45 -6
-16 -8 -32 -5 -34 3 -3 -4 -3 -16 0 -17 4 -19 11 -14 37 4 22 2 28 -5 21 -6
-5 -12 -29 -13 -52 -2 -26 -8 -43 -15 -43 -7 0 -15 -6 -18 -12 -3 -7 -4 -1 -2
15 5 42 -11 42 -18 -1 -4 -20 -11 -57 -16 -82 -44 -199 -50 -244 -43 -293 7
-52 7 -57 4 -112 -1 -23 -3 -27 -11 -15 -14 21 -13 53 2 44 8 -5 9 -2 5 10 -4
10 -7 34 -8 54 0 34 -1 35 -10 13 -5 -14 -9 -32 -8 -40 2 -9 -3 -34 -9 -56
-12 -43 -36 -162 -47 -232 -4 -29 -3 -43 4 -43 6 0 11 9 11 19 0 11 5 23 10
26 6 3 10 16 10 28 0 18 -2 19 -11 7 -10 -15 -9 -6 7 50 7 26 24 26 24 -1 0
-11 -4 -17 -10 -14 -5 3 -10 -1 -10 -9 0 -9 5 -16 10 -16 14 0 13 -23 -3 -53
-7 -14 -12 -52 -11 -87 1 -35 -1 -58 -6 -51 -5 9 -10 4 -14 -14 -5 -20 -10
-25 -18 -17 -8 8 -8 15 2 27 7 8 8 15 2 15 -6 0 -8 17 -5 43 14 106 -10 9 -61
-248 -31 -154 -61 -302 -66 -330 -6 -27 -22 -104 -35 -170 -14 -66 -38 -185
-55 -265 -16 -80 -30 -146 -30 -147 0 -2 17 -3 38 -4 39 0 32 -6 -33 -25 -29
-9 -31 -13 -52 -119 -12 -60 -21 -111 -19 -112 2 -2 86 16 187 41 101 24 274
66 384 92 110 25 202 48 204 50 6 5 38 208 34 215 -1 4 -18 3 -35 -1 -18 -4
-143 -33 -278 -65 -135 -31 -249 -59 -253 -62 -14 -8 -55 26 -59 49 -2 14 -9
22 -18 20 -10 -3 -9 3 5 19 16 18 17 21 4 16 -13 -4 -16 -1 -12 13 4 17 7 17
19 5 17 -17 18 -35 2 -35 -6 0 -9 -2 -6 -5 3 -4 32 3 64 13 33 11 179 48 325
83 l267 64 47 265 c51 288 258 1426 306 1685 35 183 34 240 -6 320 -79 163
-300 230 -676 205 -89 -6 -207 -17 -260 -24 l-97 -12 -17 60 c-9 34 -21 89
-27 124 -5 34 -13 62 -17 61 -3 -1 -64 -16 -135 -35z"/>
<path d="M8190 7269 c-47 -5 -182 -18 -300 -29 -220 -22 -647 -69 -847 -95
-62 -8 -166 -22 -230 -30 -394 -51 -587 -84 -600 -102 -7 -9 -13 -45 -13 -80
0 -49 4 -64 18 -72 11 -6 79 1 202 20 462 71 1117 151 1684 204 154 15 287 30
297 35 31 17 35 111 6 148 -11 14 -84 14 -217 1z"/>
<path d="M8245 6794 c-434 -45 -468 -52 -444 -80 12 -15 1 -112 -15 -127 -8
-6 -11 -34 -9 -71 4 -58 3 -60 -11 -36 -17 28 -22 54 -6 30 8 -11 10 -8 8 15
-2 17 -7 33 -12 36 -4 4 2 17 14 29 18 18 21 29 16 68 -3 33 -2 39 4 22 l8
-25 1 26 c1 27 -24 58 -36 45 -8 -8 -8 -64 1 -96 5 -20 5 -21 -3 -5 -7 17 -10
14 -16 -20 -10 -60 -13 -64 -14 -18 -1 23 4 45 9 48 6 4 7 11 4 17 -4 6 -10 5
-16 -3 -5 -9 -6 -3 -2 16 4 17 11 32 16 33 4 2 8 10 8 18 0 7 -6 11 -14 8 -9
-3 -19 -33 -26 -77 -11 -76 -29 -185 -54 -332 -9 -49 -20 -119 -26 -155 -5
-36 -24 -152 -41 -258 -19 -113 -28 -197 -23 -200 12 -9 18 -126 5 -118 -5 3
-7 14 -4 24 2 10 0 34 -5 53 -9 33 -9 32 -16 -29 -5 -35 -10 -78 -12 -95 -2
-18 -9 -56 -14 -85 -9 -44 -8 -55 5 -68 13 -14 15 -10 15 40 0 56 19 91 21 39
1 -17 3 -21 6 -10 2 9 8 17 12 17 10 0 26 112 23 155 -1 25 0 27 9 12 6 -10 8
-37 5 -60 -5 -32 -4 -37 4 -22 11 22 12 27 -5 -67 -4 -21 -11 -35 -16 -32 -5
3 -9 1 -9 -5 0 -5 4 -11 8 -13 5 -1 6 -25 2 -53 -7 -53 -6 -54 -24 20 -2 5 -8
-1 -15 -14 -7 -13 -9 -26 -4 -30 4 -3 6 -24 3 -46 l-6 -40 -8 45 c-7 36 -10
41 -17 25 -7 -18 -9 -16 -13 14 0 5 -4 13 -8 17 -5 4 -8 -13 -8 -37 0 -24 -5
-63 -10 -86 -19 -84 -28 -171 -20 -204 6 -27 8 -29 9 -10 2 40 14 14 17 -34 2
-27 -1 -43 -6 -40 -6 3 -7 -1 -3 -10 9 -24 22 1 24 45 2 34 2 34 6 5 3 -16 10
-36 16 -44 10 -12 9 -14 -5 -8 -24 9 -32 -27 -25 -106 l6 -62 -14 55 c-7 30
-16 78 -20 105 -3 28 -15 77 -26 110 -10 33 -50 200 -88 370 -39 171 -86 380
-106 465 -20 85 -67 294 -105 464 -39 170 -72 312 -75 315 -3 2 -63 -3 -133
-12 -480 -65 -579 -80 -597 -89 -11 -6 -40 -16 -65 -23 -53 -13 -45 15 -111
-375 -23 -135 -46 -267 -51 -295 -5 -27 -13 -77 -18 -110 -5 -33 -13 -87 -19
-120 -6 -33 -12 -76 -14 -95 -2 -20 -6 -40 -10 -46 -3 -6 -11 -44 -16 -85 -14
-95 -25 -163 -56 -324 -13 -71 -31 -179 -40 -240 -9 -60 -21 -128 -27 -149
-11 -45 -48 -260 -48 -282 0 -8 5 -12 10 -9 6 3 10 15 10 26 0 10 5 19 10 19
6 0 10 -4 10 -10 0 -5 7 -10 16 -10 8 0 12 -4 9 -10 -3 -5 -1 -10 4 -10 6 0
11 9 11 20 0 11 5 20 11 20 6 0 8 -9 4 -20 -8 -24 -7 -24 75 -5 36 8 160 35
275 60 116 25 219 50 231 54 18 8 25 39 70 335 27 179 51 326 54 326 3 0 54
-190 113 -422 235 -924 325 -1270 333 -1278 8 -7 181 8 727 61 70 7 134 17
142 23 9 7 26 93 50 251 37 249 72 473 149 950 87 536 243 1551 303 1973 l6
42 -59 -1 c-33 -1 -117 -8 -189 -15z m-15 -539 c13 -16 -20 -228 -221 -1405
-33 -195 -64 -380 -69 -410 -5 -30 -34 -203 -65 -385 -45 -267 -60 -334 -76
-350 -15 -16 -23 -17 -37 -9 -13 9 -17 25 -15 75 1 60 65 458 168 1054 25 143
79 460 121 705 100 590 122 711 135 727 15 17 44 17 59 -2z"/>
<path d="M1333 6423 c-52 -5 -73 -30 -73 -89 0 -33 5 -47 25 -62 22 -18 36
-19 132 -15 131 7 143 14 143 88 0 73 -16 85 -111 83 -41 -1 -93 -3 -116 -5z"/>
<path d="M4940 6420 c-25 -5 -137 -23 -250 -40 -113 -18 -209 -36 -213 -40 -9
-8 -30 -90 -97 -375 -23 -99 -62 -261 -85 -360 -24 -99 -53 -220 -65 -270 -12
-49 -41 -171 -65 -270 -23 -99 -46 -195 -50 -213 -4 -18 -9 -31 -12 -28 -6 6
-40 234 -139 936 -37 261 -71 479 -75 484 -5 6 -55 3 -126 -8 -164 -24 -497
-78 -501 -81 -2 -2 -21 -70 -44 -151 -52 -190 -71 -258 -151 -534 -36 -124
-117 -405 -181 -625 -162 -565 -159 -554 -167 -522 -4 15 -12 354 -18 754 -6
401 -14 793 -17 872 l-6 143 -37 -5 c-20 -4 -146 -20 -281 -37 -245 -31 -290
-41 -290 -67 0 -7 -13 -16 -30 -19 -16 -4 -30 -11 -30 -15 0 -5 11 -7 24 -3
14 3 27 1 31 -6 6 -9 9 -9 15 0 4 6 10 -11 14 -39 7 -53 2 -76 -15 -66 -5 4
-9 -38 -9 -103 0 -60 -2 -122 -4 -138 -2 -16 -1 -21 1 -11 2 9 9 17 15 17 7 0
9 19 6 53 -3 28 -2 77 2 107 7 54 7 53 10 -32 2 -49 4 -100 5 -115 1 -16 5
-109 9 -208 4 -99 9 -195 11 -213 7 -54 24 -417 31 -673 6 -216 5 -236 -10
-242 -18 -7 -32 15 -21 33 9 15 -6 170 -16 170 -5 0 -9 -18 -9 -40 0 -22 -5
-40 -10 -40 -6 0 -10 41 -11 103 -2 233 -4 297 -10 297 -6 0 -18 383 -23 760
-2 135 -1 223 3 195 6 -45 7 -39 14 53 4 57 5 108 2 113 -14 22 -25 5 -25 -38
0 -57 -8 -53 -11 5 -2 23 -7 42 -12 42 -12 0 -4 -243 43 -1290 12 -269 27
-674 40 -1090 20 -631 30 -893 34 -897 2 -2 10 -1 19 3 15 5 15 10 2 40 -9 22
-14 67 -13 126 1 51 -2 152 -7 223 -12 195 -12 551 1 625 7 36 12 53 13 38 1
-34 18 -36 31 -5 8 21 9 21 9 -6 1 -16 -3 -26 -9 -22 -6 4 -9 -10 -9 -37 l2
-43 7 35 7 35 2 -43 c1 -45 -13 -49 -29 -8 -7 17 -9 12 -9 -22 -1 -30 2 -41
11 -36 8 5 9 -2 5 -27 -4 -20 -3 -29 2 -21 5 8 8 -17 9 -63 0 -42 5 -82 10
-88 12 -14 21 -197 10 -190 -5 2 -9 12 -9 21 -2 25 -17 -78 -17 -113 1 -25 2
-23 8 10 l7 40 2 -45 c1 -31 4 -40 10 -31 11 17 10 21 16 -184 2 -82 0 -139
-4 -125 l-7 25 -6 -27 c-3 -15 -1 -25 3 -22 4 2 13 -5 20 -17 9 -17 8 -23 -2
-30 -27 -17 57 -9 266 26 116 20 261 45 323 57 l112 21 25 81 c21 72 248 900
321 1174 15 56 29 100 32 97 6 -5 68 -432 78 -537 5 -52 10 -68 22 -68 9 0
110 23 226 51 116 28 333 79 481 114 383 89 353 79 361 123 3 20 10 55 14 77
5 22 7 41 5 44 -2 2 -116 -24 -253 -59 -137 -34 -260 -60 -273 -58 -35 5 -40
61 -7 81 13 8 145 45 294 82 l271 67 31 142 c18 77 94 427 171 776 77 349 180
818 230 1042 50 223 91 411 91 417 0 12 -34 13 -100 1z m-1388 -369 c23 -45
34 -56 43 -40 5 8 4 10 -3 5 -7 -4 -12 -2 -12 4 0 7 6 10 13 8 6 -3 12 -9 12
-14 0 -5 5 -22 12 -39 6 -16 19 -91 28 -165 9 -74 27 -211 40 -305 31 -215 27
-185 74 -555 48 -372 68 -521 77 -572 5 -35 4 -38 -18 -38 -16 0 -19 3 -10 9
11 7 12 22 3 79 -6 39 -11 74 -12 79 -1 4 -5 -3 -9 -17 -7 -23 -8 -22 -9 10
-1 20 4 41 11 48 9 9 8 12 -6 12 -15 0 -17 6 -12 43 5 41 5 41 -5 8 -7 -24 -7
-59 2 -120 12 -92 22 -226 23 -331 1 -63 0 -65 -26 -68 -32 -4 -31 -5 -52 153
-27 200 -73 562 -116 895 -33 260 -82 631 -116 872 -4 26 -4 54 0 63 10 27 49
14 68 -24z"/>
<path d="M9068 6404 c-41 -12 -47 -133 -8 -154 11 -6 102 -10 215 -10 182 0
200 -2 235 -21 55 -31 79 -82 100 -212 51 -315 74 -625 73 -1022 0 -462 -15
-538 -115 -595 -41 -24 -51 -25 -271 -30 -260 -6 -257 -5 -257 -89 0 -55 7
-66 43 -80 44 -17 408 -14 491 4 146 31 236 122 273 274 7 31 18 157 25 281
19 375 -14 923 -78 1267 -41 227 -80 295 -202 355 l-67 33 -220 2 c-121 1
-228 -1 -237 -3z m661 -539 c37 -230 54 -510 54 -910 1 -305 -2 -383 -15 -442
-19 -82 -51 -137 -101 -176 -52 -40 -53 -33 -2 14 24 22 53 59 64 82 30 63 41
211 41 552 0 312 -13 530 -50 835 -21 177 -22 186 -16 179 2 -2 13 -63 25
-134z"/>
<path d="M1465 6000 c-49 -4 -104 -14 -120 -22 -101 -53 -154 -178 -125 -299
10 -41 24 -64 60 -100 60 -60 93 -69 251 -69 157 0 174 9 173 88 -1 78 -8 82
-143 82 -105 0 -120 2 -140 21 -31 29 -26 85 10 111 22 17 48 20 185 24 214 7
220 8 233 46 14 39 14 84 1 109 -10 18 -22 19 -153 17 -78 0 -182 -4 -232 -8z"/>
<path d="M790 5677 c-113 -73 -222 -144 -242 -158 -41 -26 -49 -57 -22 -80 23
-19 46 -8 274 140 220 142 250 165 250 191 0 20 -19 40 -39 40 -9 0 -108 -60
-221 -133z"/>
<path d="M8952 5795 c-315 -15 -312 -14 -312 -97 0 -36 5 -53 21 -69 20 -20
28 -21 133 -15 61 4 195 11 299 15 218 9 227 13 227 91 0 56 -27 91 -68 89
-15 -1 -150 -8 -300 -14z"/>
<path d="M895 5417 c-94 -62 -219 -143 -278 -181 -59 -38 -109 -78 -113 -89
-4 -12 1 -26 14 -39 24 -24 17 -27 209 96 404 259 418 269 397 304 -23 36 -56
23 -229 -91z"/>
<path d="M9259 5186 c-2 -2 -141 -9 -309 -16 -248 -10 -308 -15 -322 -28 -25
-21 -24 -102 0 -132 l18 -22 327 13 c282 12 329 16 343 31 23 23 25 111 4 132
-16 15 -54 29 -61 22z"/>
<path d="M1400 5160 c-237 -8 -306 -21 -419 -80 -85 -45 -458 -306 -475 -333
-12 -19 -2 -43 26 -60 15 -10 53 10 367 202 149 90 156 92 486 103 329 11 315
6 315 94 0 43 -4 56 -22 68 -12 9 -34 15 -48 14 -14 -1 -117 -5 -230 -8z"/>
<path d="M895 4737 c-246 -160 -377 -250 -389 -269 -15 -25 4 -53 35 -53 28 1
564 348 573 372 8 19 -20 53 -43 53 -9 0 -88 -47 -176 -103z"/>
<path d="M8840 4739 c-47 -4 -138 -12 -203 -18 -141 -11 -157 -20 -157 -90 0
-92 8 -94 286 -70 126 10 239 23 251 29 40 17 43 129 3 150 -21 11 -57 11
-180 -1z"/>
<path d="M1240 4582 c-33 -27 -38 -90 -9 -126 l23 -29 220 5 c213 5 220 6 238
28 20 25 24 90 8 121 -10 18 -23 19 -234 19 -199 0 -226 -2 -246 -18z"/>
<path d="M6415 4418 c-66 -15 -195 -43 -288 -63 -92 -19 -175 -39 -185 -45 -9
-5 -36 -14 -59 -20 -39 -10 -41 -12 -38 -41 3 -17 0 -27 -5 -24 -6 4 -10 0
-11 -7 0 -7 -4 -33 -8 -58 -27 -146 -51 -312 -46 -320 3 -5 0 -12 -6 -15 -6
-4 -8 -23 -5 -49 4 -29 3 -35 -3 -21 -9 19 -10 18 -11 -5 -3 -48 -7 -75 -18
-120 -23 -96 -56 -309 -50 -315 2 -3 16 2 31 10 15 7 42 12 59 9 30 -4 601 96
613 107 6 7 156 981 153 995 -2 6 -46 0 -123 -18z"/>
<path d="M8413 4285 c-21 -9 -33 -22 -37 -42 -6 -27 -63 -457 -87 -648 -14
-115 -26 -152 -52 -170 -19 -12 -238 -47 -440 -70 -70 -8 -87 -23 -87 -78 0
-63 21 -87 76 -87 46 0 440 46 484 57 47 11 99 43 124 75 46 62 43 45 107 560
23 185 39 348 35 362 -10 42 -72 63 -123 41z"/>
<path d="M5515 4209 c-16 -5 -149 -36 -295 -70 -146 -34 -274 -66 -285 -72
-11 -6 -29 -12 -40 -14 -32 -5 -45 -12 -45 -23 0 -21 87 -8 337 51 142 33 281
65 310 71 38 9 53 17 57 32 7 28 -4 35 -39 25z"/>
<path d="M1750 4130 c-19 -19 -20 -33 -20 -214 0 -190 1 -195 22 -210 34 -24
85 -20 113 9 25 24 25 26 25 205 0 179 0 181 -25 205 -31 32 -86 34 -115 5z"/>
<path d="M5330 4014 c-102 -24 -237 -56 -300 -70 -63 -14 -119 -29 -125 -34
-5 -4 -36 -15 -68 -23 -33 -9 -62 -19 -65 -22 -4 -4 -7 -28 -7 -55 0 -26 -3
-44 -6 -39 -4 7 -28 -106 -35 -166 0 -5 -4 -17 -7 -25 -9 -21 -44 -195 -62
-306 -8 -51 -19 -104 -25 -119 -6 -15 -8 -30 -5 -33 3 -3 5 -1 5 5 0 5 30 11
68 12 56 2 172 24 645 124 34 7 51 16 58 31 8 20 129 726 129 754 0 15 20 18
-200 -34z"/>
<path d="M4285 3629 c-422 -102 -833 -199 -845 -199 -39 -1 -40 -11 -21 -160
11 -80 25 -198 32 -263 l13 -119 45 7 c48 7 804 165 807 168 1 1 27 128 58
282 31 154 58 288 60 298 5 22 -3 21 -149 -14z"/>
<path d="M1055 3538 c-2 -7 -3 -20 -2 -29 1 -8 -27 -40 -62 -70 -75 -64 -51
-49 -241 -144 -86 -42 -183 -96 -215 -121 -96 -71 -335 -303 -335 -325 0 -18
61 -88 204 -236 56 -58 77 -73 100 -73 l29 0 -6 -97 c-4 -54 -18 -213 -32
-353 -38 -379 -40 -423 -24 -437 49 -40 1130 -39 1186 2 14 11 15 25 4 146
-51 589 -61 706 -61 720 0 11 12 18 39 23 36 5 51 19 155 141 119 139 138 173
115 202 -27 32 -275 246 -337 290 -70 50 -303 173 -328 173 -9 0 -40 15 -70
33 -44 26 -53 36 -48 52 17 55 16 73 -5 94 -23 23 -59 28 -66 9z m345 -365
c114 -63 218 -142 348 -265 29 -28 51 -53 48 -55 -3 -3 -17 -2 -31 1 -19 5
-25 11 -21 23 4 11 2 14 -9 9 -8 -3 -14 -2 -12 3 1 5 -32 34 -73 66 -41 32
-92 73 -113 92 -22 19 -70 49 -107 67 -38 18 -76 41 -85 50 -29 29 -62 20 -84
-21 -11 -21 -20 -34 -21 -30 0 4 7 22 16 38 9 19 13 41 9 60 -4 18 -3 29 4 29
6 0 65 -30 131 -67z m-832 -140 c-1 -39 -3 -51 -9 -38 -4 11 -8 14 -8 6 -1 -8
-4 -11 -8 -8 -3 4 -25 -10 -48 -31 -60 -54 -98 -82 -111 -82 -6 0 -17 -6 -23
-14 -10 -12 -9 -20 4 -40 21 -32 10 -34 -22 -4 -28 26 -28 29 -3 58 18 20 222
209 227 210 1 0 1 -26 1 -57z m92 -280 c8 -50 8 -109 0 -223 -6 -85 -15 -218
-20 -295 -5 -77 -16 -196 -25 -265 -8 -69 -15 -147 -15 -173 0 -34 -5 -49 -15
-54 -9 -3 -17 -4 -19 -2 -2 2 13 189 34 414 21 226 39 455 41 510 4 97 4 99
-21 112 -19 10 -21 13 -7 13 10 0 20 7 23 15 4 8 8 15 9 15 2 0 8 -30 15 -67z"/>
<path d="M9344 3535 c-4 -8 -1 -22 5 -29 9 -11 5 -19 -21 -37 -18 -12 -51 -39
-73 -59 -25 -23 -71 -47 -120 -65 -76 -28 -218 -102 -297 -156 -86 -59 -368
-325 -368 -348 0 -19 228 -249 279 -282 25 -16 53 -29 64 -29 16 0 18 -6 13
-52 -3 -29 -11 -123 -16 -208 -6 -85 -19 -253 -30 -372 -11 -119 -17 -223 -14
-232 3 -8 13 -17 22 -20 10 -3 125 -10 257 -17 225 -11 475 -9 753 8 137 8
147 13 138 87 -5 41 -37 552 -48 761 -3 48 -2 49 29 56 17 3 44 16 60 28 55
44 253 262 253 280 0 23 -160 179 -308 300 -73 60 -264 168 -337 190 -60 19
-165 77 -165 92 0 4 5 11 10 14 18 11 11 61 -13 83 -27 25 -65 29 -73 7z
m-192 -370 c20 -38 63 -78 107 -100 47 -24 139 -21 185 4 27 15 34 17 29 5 -4
-10 0 -13 13 -8 14 4 12 0 -6 -15 -29 -24 -145 -46 -192 -36 -54 10 -90 27
-80 37 10 10 42 0 42 -14 0 -5 5 -6 10 -3 6 4 -5 17 -24 30 -47 32 -94 85
-102 114 l-7 24 -12 -22 c-10 -20 -13 -21 -24 -7 -11 13 -21 10 -79 -27 -37
-23 -71 -45 -77 -49 -5 -5 -29 -22 -53 -39 -29 -20 -42 -35 -38 -45 3 -9 1
-12 -4 -9 -10 6 -23 -3 -147 -111 -55 -48 -68 -65 -60 -74 10 -10 7 -10 -10
-1 -13 6 -23 17 -23 23 0 14 205 213 275 267 28 21 95 62 150 90 l100 52 6
-28 c3 -15 13 -41 21 -58z m591 -378 c32 20 34 10 40 -230 13 -457 12 -482
-32 -657 -29 -113 -43 -156 -55 -158 -14 -3 -16 10 -15 95 0 54 4 145 8 203 9
115 5 174 -12 163 -6 -3 -7 -1 -3 6 10 16 -13 43 -31 37 -9 -4 -6 6 8 26 14
19 24 27 27 19 3 -8 -2 -17 -9 -22 -11 -6 -11 -11 -1 -21 6 -6 12 -9 12 -5 0
4 1 10 2 15 19 90 28 168 28 257 0 61 3 182 8 270 5 127 8 143 10 77 2 -62 6
-81 15 -75z m-778 -27 c4 -7 18 -9 32 -5 16 4 22 2 18 -5 -3 -5 -12 -10 -19
-10 -28 0 -35 -49 -39 -295 -3 -137 -7 -257 -9 -265 -3 -8 -3 -12 -1 -7 7 11
23 -2 23 -19 0 -8 -4 -13 -9 -10 -23 14 -30 -30 -34 -200 -2 -99 -7 -185 -11
-192 -4 -7 -17 -12 -28 -12 -20 0 -20 4 -14 73 19 210 66 906 67 992 l2 100 7
-67 c5 -37 11 -72 15 -78z m617 -153 c3 -176 1 -209 -12 -217 -11 -7 -20 -3
-32 13 -10 12 -18 28 -18 35 0 7 -9 30 -20 52 -11 22 -21 52 -21 67 -3 65 -18
-55 -17 -133 1 -81 -4 -104 -23 -104 -14 0 -12 407 3 416 8 5 9 2 5 -9 -3 -10
-2 -17 3 -17 5 0 6 -7 3 -17 -5 -12 -3 -14 7 -8 10 6 12 3 8 -13 -4 -12 -2
-22 3 -22 5 0 9 -9 9 -20 0 -23 30 -61 42 -54 4 3 8 -2 8 -11 0 -9 4 -14 9
-11 4 3 12 56 17 118 4 62 9 118 10 123 1 6 2 14 3 19 0 5 3 7 6 5 2 -3 6 -98
7 -212z"/>
<path d="M7373 3344 c-6 -3 -38 -37 -71 -77 -159 -190 -436 -438 -667 -596
-394 -269 -872 -444 -1303 -477 l-92 -7 0 96 0 95 93 6 c540 39 928 196 1382
561 104 83 124 112 106 151 -10 24 -16 26 -50 21 -20 -2 -48 1 -60 7 -19 11
-20 14 -8 24 12 10 16 9 21 -3 3 -9 10 -14 14 -11 5 3 25 6 45 8 25 1 34 5 27
12 -15 15 -12 26 7 19 13 -5 15 -2 11 15 -5 19 -2 22 25 23 18 1 34 1 37 1 3
0 10 6 16 12 10 10 5 13 -19 14 -23 1 -28 -2 -17 -9 11 -7 2 -9 -30 -8 -63 1
-64 1 -86 -19 -10 -9 -34 -29 -52 -44 -18 -15 -31 -30 -30 -33 2 -4 -13 -13
-32 -21 -25 -11 -31 -17 -21 -23 11 -7 11 -9 0 -14 -12 -4 -11 -7 1 -16 11 -7
16 -7 20 2 3 7 11 13 19 15 12 3 12 1 1 -13 -16 -19 -56 -42 -46 -27 9 14 -8
24 -28 16 -15 -6 -15 -8 1 -20 15 -10 16 -15 5 -26 -11 -11 -12 -10 -7 5 7 17
-5 23 -19 10 -4 -5 -11 -8 -14 -8 -4 -1 -17 -6 -30 -13 -12 -7 -28 -10 -35 -7
-6 4 -3 -1 8 -10 20 -17 20 -17 -2 -11 -12 4 -24 2 -28 -4 -6 -10 13 -14 45
-11 13 2 13 1 0 -8 -8 -6 -23 -8 -32 -5 -10 3 -18 1 -18 -5 0 -6 6 -11 12 -11
7 0 2 -7 -10 -16 -12 -8 -27 -12 -32 -9 -6 4 -9 2 -8 -4 4 -15 -102 -79 -123
-74 -10 3 -17 9 -14 13 3 4 -1 10 -8 13 -8 3 -14 -1 -14 -9 0 -8 5 -14 11 -14
6 0 2 -7 -8 -15 -11 -8 -15 -15 -10 -15 6 0 15 5 22 12 6 6 14 9 18 6 10 -10
-124 -80 -138 -72 -7 4 -10 3 -5 -1 15 -17 -256 -128 -392 -161 -67 -16 -74
-17 -85 -2 -11 14 -13 15 -22 2 -12 -20 -141 -42 -291 -50 l-123 -7 0 81 c0
92 15 149 31 120 13 -23 57 -23 205 -3 155 21 373 80 499 135 69 30 226 107
250 122 11 7 39 24 62 37 23 14 39 29 36 35 -3 5 -1 6 5 2 11 -7 73 36 160
111 l34 28 -39 3 c-21 1 -97 -9 -168 -24 -132 -26 -286 -54 -408 -75 -45 -8
-64 -15 -55 -21 8 -5 3 -6 -14 -2 -16 3 -36 3 -45 -1 -10 -5 -31 -9 -48 -11
-37 -3 -324 -53 -346 -60 -9 -2 -68 -13 -130 -24 -261 -43 -353 -62 -378 -78
-17 -12 -23 -13 -17 -3 6 10 4 12 -10 8 -22 -7 -131 -28 -139 -28 -12 1 -89
-30 -102 -41 -11 -9 -10 -13 7 -25 11 -8 25 -11 32 -7 7 4 8 3 4 -4 -7 -12 42
-38 52 -27 3 3 -1 5 -8 5 -7 0 -11 2 -8 5 7 8 39 -6 33 -14 -4 -7 145 -44 225
-56 19 -3 50 -8 69 -12 31 -5 34 -4 28 16 -3 11 -1 19 4 15 5 -3 9 -50 9 -105
l0 -99 -53 0 c-207 0 -529 79 -802 196 -132 57 -182 62 -204 22 -26 -45 -3
-69 118 -126 278 -131 553 -204 854 -227 l87 -7 0 -94 0 -94 -34 0 c-53 0
-259 28 -371 51 -259 52 -652 217 -869 364 l-99 67 -91 -17 c-50 -10 -102 -22
-115 -27 -20 -7 -21 -10 -10 -25 24 -29 166 -130 277 -196 259 -156 541 -270
827 -336 97 -22 381 -61 445 -61 l40 0 0 -170 c0 -168 0 -171 25 -195 15 -15
36 -25 54 -25 80 0 91 27 91 228 l0 158 130 13 c576 53 1101 273 1595 668 178
143 481 449 524 530 38 72 -40 158 -116 127z"/>
<path d="M2902 2478 c-54 -50 -170 -164 -259 -252 -178 -175 -188 -192 -138
-241 26 -27 63 -32 98 -13 22 11 452 417 494 467 49 56 14 131 -61 131 -34 0
-48 -9 -134 -92z"/>
<path d="M7556 2509 c-14 -20 -16 -57 -16 -249 0 -235 6 -271 43 -278 10 -2
27 4 38 14 18 16 19 33 19 258 0 133 -4 246 -8 253 -4 6 -19 14 -33 18 -21 5
-30 2 -43 -16z"/>
<path d="M7717 2512 c-15 -16 -17 -49 -17 -259 0 -220 2 -241 18 -256 24 -22
45 -21 65 1 25 27 25 476 1 510 -18 27 -45 28 -67 4z"/>
<path d="M7876 2512 c-14 -17 -16 -47 -14 -268 l3 -249 28 -9 c21 -8 31 -6 43
6 13 13 16 53 17 262 2 234 1 248 -17 262 -26 19 -40 18 -60 -4z"/>
<path d="M8032 2510 c-9 -14 -12 -87 -12 -265 0 -239 0 -245 21 -256 16 -8 28
-8 45 0 l24 11 0 254 c0 242 -1 256 -19 266 -29 15 -45 12 -59 -10z"/>
<path d="M3405 2359 c-23 -14 -120 -105 -372 -352 -163 -159 -183 -182 -183
-211 0 -41 38 -79 79 -79 39 0 65 22 354 305 257 252 262 259 215 312 -27 30
-65 40 -93 25z"/>
</g>
</svg>
